# xmcd CD database file
#
# Track frame offsets:
#	150
#	16000
#	29415
#	47862
#	64322
#	86897
#	114580
#	133200
#	151570
#	171662
#	192110
#	213322
#
# Disc length: 3113 seconds
#
# Revision: 0
# Processed by: cddbd v1.5.1PL0 Copyright (c) Steve Scherf et al.
# Submitted via: CDex 1.51
#
DISCID=a60c270c
DTITLE=Various Artist - 青春のニューミュージック
DYEAR=2001
DGENRE=J-POP
TTITLE0=中村雅俊／ふれあい
TTITLE1=ダ・カーポ／結婚するって本当ですか
TTITLE2=山下久美子／バスルームから愛をこめて
TTITLE3=ゴダイゴ／テイキング・オフ
TTITLE4=中西保志／千年前から見つめていた
TTITLE5=中西保志／LAST CALL
TTITLE6=ゴダイゴ／ガンダーラ
TTITLE7=庄野真代／中央フリーウェイ
TTITLE8=山下久美子／星になった嘘
TTITLE9=猿岩石／オエ　オエ　オ！
TTITLE10=来生たかお／どこまでも恋心
TTITLE11=財津和夫with原みどり／償いの日々
EXTD=YEAR: 2001
EXTT0=
EXTT1=
EXTT2=
EXTT3=
EXTT4=
EXTT5=
EXTT6=
EXTT7=
EXTT8=
EXTT9=
EXTT10=
EXTT11=
PLAYORDER=
